{"glyphs":{"0":{"ha":849,"x_min":0,"x_max":0,"o":"m 58 501 b 424 -14 58 214 158 -14 b 789 501 689 -14 789 214 b 424 1017 789 789 689 1017 b 58 501 158 1017 58 789 z m 239 501 b 424 867 239 775 314 867 b 608 501 533 867 608 775 b 424 136 608 228 533 136 b 239 501 314 136 239 228 z "},"1":{"ha":849,"x_min":0,"x_max":0,"o":"m 693 0 l 693 139 l 539 139 l 539 1017 l 399 1017 b 181 947 353 972 272 951 l 181 831 l 358 831 l 358 139 l 203 139 l 203 0 z "},"2":{"ha":849,"x_min":0,"x_max":0,"o":"m 753 0 l 753 156 l 278 156 b 753 728 528 383 753 483 b 426 1017 753 915 603 1017 b 82 743 247 1017 103 897 l 243 708 b 424 867 265 800 324 867 b 572 728 515 867 572 815 b 78 165 572 544 108 322 l 78 0 z "},"3":{"ha":849,"x_min":0,"x_max":0,"o":"m 269 457 b 572 288 390 457 572 451 b 399 136 572 190 488 136 b 188 263 303 136 236 181 l 43 181 b 397 -14 113 53 256 -14 b 753 288 575 -14 753 78 b 568 542 753 413 688 504 b 719 758 664 583 719 658 b 389 1017 719 928 572 1017 b 83 875 286 1017 181 978 l 203 767 b 394 867 253 819 310 867 b 539 747 478 867 539 819 b 269 607 539 628 417 607 z "},"4":{"ha":849,"x_min":0,"x_max":0,"o":"m 172 369 l 482 817 l 485 817 l 485 369 z m 33 231 l 485 231 l 485 0 l 657 0 l 657 231 l 799 231 l 799 369 l 657 369 l 657 1003 l 461 1003 l 33 407 z "},"5":{"ha":849,"x_min":0,"x_max":0,"o":"m 122 469 l 267 442 b 418 528 294 492 347 528 b 589 344 524 528 589 447 b 403 138 589 219 531 133 b 225 251 335 139 256 181 l 75 174 b 400 -14 131 61 242 -14 b 769 344 642 -14 769 125 b 469 678 769 508 650 678 b 282 619 361 678 314 653 l 296 847 l 701 847 l 701 1003 l 160 1003 z "},"6":{"ha":849,"x_min":0,"x_max":0,"o":"m 601 310 b 442 136 603 206 538 136 b 249 378 344 136 249 208 b 429 492 288 453 349 492 b 601 310 542 492 603 421 z m 747 942 b 499 1017 671 989 596 1017 b 68 442 226 1017 68 792 b 428 -14 68 136 218 -14 b 782 317 629 -14 781 107 b 474 642 781 508 650 642 b 249 561 382 642 314 618 b 499 867 251 731 363 867 b 668 797 571 867 626 833 z "},"7":{"ha":849,"x_min":0,"x_max":0,"o":"m 81 847 l 563 847 l 157 0 l 356 0 l 768 899 l 768 1003 l 81 1003 z "},"8":{"ha":849,"x_min":0,"x_max":0,"o":"m 758 767 b 424 1017 758 919 628 1017 b 89 767 219 1017 89 919 b 253 533 89 649 154 586 b 51 258 131 481 51 397 b 424 -14 51 94 211 -14 b 796 258 636 -14 796 94 b 594 533 796 397 717 481 b 758 767 693 586 758 649 z m 424 125 b 232 271 297 125 232 183 b 411 453 232 372 367 453 b 615 271 456 453 615 361 b 424 125 615 183 550 125 z m 422 878 b 578 764 536 878 578 831 b 424 611 578 692 475 611 b 269 764 372 611 269 672 b 422 878 269 831 311 878 z "},"9":{"ha":849,"x_min":0,"x_max":0,"o":"m 231 693 b 390 867 229 797 294 867 b 583 625 488 867 583 794 b 403 511 544 550 483 511 b 231 693 290 511 229 582 z m 85 61 b 333 -14 161 14 236 -14 b 764 561 606 -14 764 211 b 404 1017 764 867 614 1017 b 50 686 203 1017 51 896 b 358 361 51 494 182 361 b 583 442 450 361 518 385 b 333 136 581 272 469 136 b 164 206 261 136 206 169 z "}," ":{"ha":424,"x_min":0,"x_max":0,"o":""},"!":{"ha":463,"x_min":0,"x_max":0,"o":"m 333 1003 l 128 1003 l 164 339 l 297 339 z m 326 0 l 326 197 l 135 197 l 135 0 z "},"\"":{"ha":463,"x_min":0,"x_max":0,"o":"m 274 625 l 429 625 l 429 1003 l 274 1003 z m 33 625 l 189 625 l 189 1003 l 33 1003 z "},"#":{"ha":849,"x_min":0,"x_max":0,"o":"m 722 418 l 611 418 l 635 585 l 763 585 l 763 710 l 651 710 l 689 1003 l 558 1003 l 519 710 l 386 710 l 424 1003 l 293 1003 l 254 710 l 126 710 l 126 585 l 238 585 l 214 418 l 85 418 l 85 293 l 196 293 l 158 0 l 289 0 l 328 293 l 461 293 l 424 0 l 554 0 l 593 293 l 722 293 z m 503 585 l 479 418 l 346 418 l 369 585 z "},"$":{"ha":849,"x_min":0,"x_max":0,"o":"m 468 410 b 619 265 558 386 619 346 b 468 139 619 167 540 139 z m 365 614 b 224 732 267 642 224 668 b 365 864 224 822 281 858 z m 365 139 b 178 268 285 157 229 190 l 58 165 b 365 0 135 63 243 13 l 365 -167 l 468 -167 l 468 0 b 775 269 636 8 775 86 b 468 586 775 444 664 528 l 468 864 b 644 758 542 853 589 813 l 753 865 b 468 1003 661 956 575 1000 l 468 1103 l 365 1103 l 365 1003 b 68 719 208 1000 68 906 b 365 440 68 564 208 475 z "},"%":{"ha":1235,"x_min":0,"x_max":0,"o":"m 297 1003 b 47 753 157 1003 47 889 b 297 503 47 617 157 503 b 547 753 438 503 547 617 b 297 1003 547 889 438 1003 z m 297 867 b 411 753 360 867 411 813 b 297 639 411 693 360 639 b 183 753 235 639 183 693 b 297 867 183 813 235 867 z m 938 500 b 688 250 797 500 688 386 b 938 0 688 114 797 0 b 1188 250 1078 0 1188 114 b 938 500 1188 386 1078 500 z m 938 364 b 1051 250 1000 364 1051 310 b 938 136 1051 190 1000 136 b 824 250 875 136 824 190 b 938 364 824 310 875 364 z m 274 -14 l 392 -14 l 968 1017 l 850 1017 z "},"&":{"ha":926,"x_min":0,"x_max":0,"o":"m 299 796 b 383 903 299 864 344 903 b 469 800 440 903 469 856 b 351 633 469 735 410 676 b 299 796 319 682 299 738 z m 708 503 b 614 314 685 436 654 372 b 438 513 551 369 492 439 b 631 793 531 586 631 663 b 392 1017 631 919 524 1017 b 138 783 244 1017 138 925 b 222 542 138 685 167 622 b 56 278 125 476 56 401 b 376 -14 56 78 189 -14 b 631 92 475 -14 563 21 b 881 -14 744 0 785 -14 l 881 147 b 739 215 831 149 782 176 b 861 461 793 292 829 376 z m 236 286 b 317 418 236 351 269 379 b 517 203 371 338 436 265 b 383 147 481 167 432 147 b 236 286 306 147 236 213 z "},"’":{"ha":386,"x_min":0,"x_max":0,"o":"m 110 597 l 200 597 l 289 806 l 289 1003 l 97 1003 l 97 806 l 181 806 z "},"(":{"ha":463,"x_min":0,"x_max":0,"o":"m 258 1017 b 69 450 139 831 69 686 b 258 -117 69 214 139 69 l 426 -117 b 225 450 292 57 225 240 b 426 1017 225 660 292 843 z "},")":{"ha":463,"x_min":0,"x_max":0,"o":"m 204 -117 b 393 450 324 69 393 214 b 204 1017 393 686 324 831 l 36 1017 b 238 450 171 843 238 660 b 36 -117 238 240 171 57 z "},"*":{"ha":694,"x_min":0,"x_max":0,"o":"m 313 794 l 128 889 l 92 765 l 294 740 l 297 732 l 150 586 l 254 513 l 343 694 l 353 696 l 446 511 l 549 592 l 400 739 l 603 771 l 561 896 l 383 793 l 376 800 l 413 1003 l 275 1003 l 318 801 z "},"+":{"ha":833,"x_min":0,"x_max":0,"o":"m 492 436 l 492 722 l 342 722 l 342 436 l 56 436 l 56 286 l 342 286 l 342 0 l 492 0 l 492 286 l 778 286 l 778 436 z "},",":{"ha":424,"x_min":0,"x_max":0,"o":"m 128 -208 l 218 -208 l 307 0 l 307 197 l 115 197 l 115 0 l 199 0 z "},"-":{"ha":463,"x_min":0,"x_max":0,"o":"m 401 286 l 401 436 l 61 436 l 61 286 z "},".":{"ha":424,"x_min":0,"x_max":0,"o":"m 307 0 l 307 197 l 115 197 l 115 0 z "},"/":{"ha":386,"x_min":0,"x_max":0,"o":"m 425 1017 l 274 1017 l -39 -14 l 113 -14 z "},":":{"ha":424,"x_min":0,"x_max":0,"o":"m 307 417 l 307 614 l 115 614 l 115 417 z m 307 0 l 307 197 l 115 197 l 115 0 z "},";":{"ha":424,"x_min":0,"x_max":0,"o":"m 128 -208 l 218 -208 l 307 0 l 307 197 l 115 197 l 115 0 l 199 0 z m 307 417 l 307 614 l 115 614 l 115 417 z "},"<":{"ha":833,"x_min":0,"x_max":0,"o":"m 778 143 l 261 361 l 778 579 l 778 733 l 56 425 l 56 297 l 778 -11 z "},"=":{"ha":833,"x_min":0,"x_max":0,"o":"m 778 589 l 56 589 l 56 439 l 778 439 z m 778 283 l 56 283 l 56 133 l 778 133 z "},">":{"ha":833,"x_min":0,"x_max":0,"o":"m 56 -11 l 778 297 l 778 425 l 56 733 l 56 579 l 572 361 l 56 143 z "},"?":{"ha":617,"x_min":0,"x_max":0,"o":"m 351 338 l 351 389 b 451 582 351 467 401 522 b 551 794 501 640 551 703 b 300 1017 551 939 436 1017 b 14 800 151 1017 49 938 l 174 756 b 289 878 182 814 224 878 b 376 803 335 878 376 844 b 288 624 376 744 332 686 b 199 414 243 561 199 493 l 199 338 z m 374 0 l 374 197 l 182 197 l 182 0 z "},"@":{"ha":1111,"x_min":0,"x_max":0,"o":"m 529 346 b 425 463 464 346 425 396 b 569 626 425 553 486 626 b 676 513 633 626 676 579 b 529 346 676 429 617 346 z m 715 683 b 553 769 676 743 619 769 b 274 442 383 769 274 608 b 493 199 274 311 376 199 b 628 271 542 199 594 232 l 631 269 b 704 199 632 222 665 199 b 1047 597 788 199 1047 292 b 578 1017 1047 853 817 1017 b 63 500 294 1017 63 793 b 585 -14 63 203 299 -14 b 988 200 751 -14 893 63 l 863 200 b 596 103 794 142 700 103 b 201 500 365 103 201 257 b 574 900 201 729 347 900 b 932 558 779 900 932 781 b 796 333 932 410 858 333 b 776 364 781 333 776 346 b 785 414 776 381 782 400 l 853 753 l 731 753 z "},"A":{"ha":849,"x_min":0,"x_max":0,"o":"m 428 811 l 431 811 l 543 375 l 310 375 z m 18 0 l 208 0 l 268 217 l 585 217 l 640 0 l 831 0 l 546 1004 l 307 1004 z "},"B":{"ha":926,"x_min":0,"x_max":0,"o":"m 108 0 l 478 0 b 843 264 733 0 843 108 b 668 529 843 417 799 476 b 821 757 778 572 821 653 b 481 1003 810 936 681 1003 l 108 1003 z m 300 447 l 492 447 b 651 301 603 447 651 397 b 492 156 651 206 603 156 l 300 156 z m 300 847 l 492 847 b 629 725 583 847 629 794 b 492 603 629 656 583 603 l 300 603 z "},"C":{"ha":849,"x_min":0,"x_max":0,"o":"m 794 753 b 444 1017 747 931 636 1017 b 42 501 189 1017 42 829 b 444 -14 42 174 189 -14 b 818 249 628 -14 758 75 l 640 296 b 444 147 583 178 531 147 b 233 501 300 147 231 267 b 439 856 233 736 311 856 b 621 711 533 856 593 796 z "},"D":{"ha":926,"x_min":0,"x_max":0,"o":"m 108 0 l 440 0 b 890 501 706 0 889 147 b 440 1003 889 856 706 1003 l 108 1003 z m 300 842 l 428 842 b 699 501 647 842 699 681 b 428 161 699 322 647 161 l 300 161 z "},"E":{"ha":849,"x_min":0,"x_max":0,"o":"m 796 0 l 796 161 l 308 161 l 308 442 l 651 442 l 651 603 l 308 603 l 308 842 l 781 842 l 781 1003 l 117 1003 l 117 0 z "},"F":{"ha":772,"x_min":0,"x_max":0,"o":"m 300 0 l 300 442 l 635 442 l 635 603 l 300 603 l 300 842 l 747 842 l 747 1003 l 108 1003 l 108 0 z "},"G":{"ha":926,"x_min":0,"x_max":0,"o":"m 824 761 b 460 1017 776 908 660 1017 b 42 486 139 1017 42 742 b 440 -14 42 203 168 -14 b 701 103 546 -14 621 14 l 701 0 l 840 0 l 840 507 l 465 507 l 465 346 l 656 346 b 446 147 651 231 571 147 b 233 492 313 147 233 281 b 444 856 233 714 303 856 b 646 714 544 856 600 814 z "},"H":{"ha":1003,"x_min":0,"x_max":0,"o":"m 308 0 l 308 431 l 694 431 l 694 0 l 886 0 l 886 1003 l 694 1003 l 694 603 l 308 603 l 308 1003 l 117 1003 l 117 0 z "},"I":{"ha":463,"x_min":0,"x_max":0,"o":"m 326 0 l 326 1003 l 135 1003 l 135 0 z "},"J":{"ha":617,"x_min":0,"x_max":0,"o":"m -7 121 b 229 -14 49 36 124 -14 b 500 271 407 -14 500 83 l 500 1003 l 308 1003 l 308 267 b 229 147 308 178 275 147 b 125 219 186 147 158 164 z "},"K":{"ha":926,"x_min":0,"x_max":0,"o":"m 300 0 l 300 301 l 440 476 l 689 0 l 901 0 l 571 626 l 856 1003 l 635 1003 l 300 557 l 300 1003 l 108 1003 l 108 0 z "},"L":{"ha":772,"x_min":0,"x_max":0,"o":"m 736 0 l 736 161 l 300 161 l 300 1003 l 108 1003 l 108 0 z "},"M":{"ha":1157,"x_min":0,"x_max":0,"o":"m 279 0 l 279 789 l 282 789 l 504 0 l 650 0 l 875 789 l 878 789 l 878 0 l 1044 0 l 1044 1003 l 772 1003 l 578 303 l 575 303 l 382 1003 l 113 1003 l 113 0 z "},"N":{"ha":1003,"x_min":0,"x_max":0,"o":"m 293 0 l 293 714 l 296 714 l 706 0 l 890 0 l 890 1003 l 710 1003 l 710 319 l 707 319 l 313 1003 l 113 1003 l 113 0 z "},"O":{"ha":926,"x_min":0,"x_max":0,"o":"m 692 501 b 463 147 692 267 619 147 b 233 501 304 147 231 267 b 463 856 233 736 306 856 b 692 501 619 856 692 736 z m 883 501 b 463 1017 883 829 736 1017 b 42 501 189 1017 42 829 b 463 -14 42 174 189 -14 b 883 501 736 -14 883 174 z "},"P":{"ha":849,"x_min":0,"x_max":0,"o":"m 286 0 l 286 406 l 461 406 b 815 704 678 406 815 496 b 461 1003 815 913 678 1003 l 94 1003 l 94 0 z m 286 847 l 439 847 b 624 704 583 847 624 793 b 439 561 624 615 583 561 l 286 561 z "},"Q":{"ha":926,"x_min":0,"x_max":0,"o":"m 463 268 b 582 181 518 257 553 224 b 463 147 550 158 510 147 b 233 501 304 147 231 267 b 463 856 233 736 306 856 b 692 501 619 856 692 736 b 668 311 692 425 685 361 b 463 439 618 385 561 429 z m 910 86 b 783 132 860 88 818 104 b 883 501 850 222 883 346 b 463 1017 883 829 736 1017 b 42 501 189 1017 42 829 b 463 -14 42 174 189 -14 b 675 36 546 -14 617 3 b 910 -75 758 -54 782 -75 z "},"R":{"ha":926,"x_min":0,"x_max":0,"o":"m 300 0 l 300 408 l 465 408 l 654 0 l 867 0 l 646 447 b 829 706 768 482 831 582 b 508 1003 828 871 736 1003 l 108 1003 l 108 0 z m 300 847 l 475 847 b 638 706 581 847 638 800 b 442 564 638 611 592 564 l 300 564 z "},"S":{"ha":849,"x_min":0,"x_max":0,"o":"m 757 790 b 403 1017 697 936 564 1017 b 79 736 229 1017 79 915 b 596 269 79 428 596 467 b 426 136 596 172 522 136 b 208 293 314 136 254 199 l 50 224 b 425 -14 107 78 261 -14 b 776 294 647 -14 776 89 b 260 756 776 619 260 583 b 403 867 260 833 319 867 b 582 736 493 867 553 814 z "},"T":{"ha":772,"x_min":0,"x_max":0,"o":"m 28 1004 l 28 843 l 290 843 l 290 0 l 482 0 l 482 843 l 744 843 l 744 1004 z "},"U":{"ha":1003,"x_min":0,"x_max":0,"o":"m 694 367 b 501 147 694 204 631 147 b 308 367 372 147 308 204 l 308 1003 l 117 1003 l 117 375 b 501 -14 117 82 297 -14 b 886 375 706 -14 886 82 l 886 1003 l 694 1003 z "},"V":{"ha":772,"x_min":0,"x_max":0,"o":"m 279 0 l 493 0 l 758 1003 l 569 1003 l 383 264 l 381 264 l 203 1003 l 14 1003 z "},"W":{"ha":1157,"x_min":0,"x_max":0,"o":"m 238 0 l 432 0 l 576 714 l 579 714 l 725 0 l 919 0 l 1128 1003 l 949 1003 l 811 326 l 808 326 l 676 1003 l 479 1003 l 336 326 l 333 326 l 207 1003 l 28 1003 z "},"X":{"ha":772,"x_min":0,"x_max":0,"o":"m 282 514 l 11 0 l 219 0 l 386 340 l 553 0 l 761 0 l 490 514 l 744 1003 l 536 1003 l 386 693 l 236 1003 l 28 1003 z "},"Y":{"ha":772,"x_min":0,"x_max":0,"o":"m 214 1003 l 14 1003 l 290 400 l 290 0 l 482 0 l 482 400 l 758 1003 l 558 1003 l 386 606 z "},"Z":{"ha":772,"x_min":0,"x_max":0,"o":"m 736 161 l 247 161 l 732 850 l 732 1003 l 54 1003 l 54 842 l 490 842 l 22 163 l 22 0 l 736 0 z "},"[":{"ha":463,"x_min":0,"x_max":0,"o":"m 399 -103 l 399 -19 l 222 -19 l 222 919 l 396 919 l 396 1003 l 72 1003 l 72 -103 z "},"\\":{"ha":386,"x_min":0,"x_max":0,"o":"m 274 -14 l 425 -14 l 113 1017 l -39 1017 z "},"]":{"ha":463,"x_min":0,"x_max":0,"o":"m 390 -103 l 390 1003 l 67 1003 l 67 919 l 240 919 l 240 -19 l 64 -19 l 64 -103 z "},"^":{"ha":833,"x_min":0,"x_max":0,"o":"m 249 482 l 417 847 l 583 482 l 736 482 l 486 1003 l 347 1003 l 97 482 z "},"_":{"ha":694,"x_min":0,"x_max":0,"o":"m 694 -174 l 694 -104 l 0 -104 l 0 -174 z "},"‘":{"ha":386,"x_min":0,"x_max":0,"o":"m 276 1017 l 186 1017 l 97 808 l 97 611 l 289 611 l 289 808 l 206 808 z "},"a":{"ha":694,"x_min":0,"x_max":0,"o":"m 625 0 b 611 104 614 32 611 68 l 611 444 b 333 736 611 661 528 732 b 64 604 228 739 108 681 l 175 519 b 333 608 208 565 253 608 b 439 522 394 608 439 578 l 439 461 b 25 178 158 428 25 342 b 221 -14 25 79 90 -14 b 446 63 311 -14 376 15 l 457 0 z m 439 190 b 281 114 403 160 335 114 b 197 199 232 114 197 144 b 439 346 197 300 324 324 z "},"b":{"ha":772,"x_min":0,"x_max":0,"o":"m 89 0 l 224 0 l 243 78 b 439 -14 304 18 361 -14 b 728 381 631 -14 728 156 b 439 736 728 558 625 736 b 264 656 381 736 299 701 l 261 656 l 261 1003 l 89 1003 z m 261 536 b 394 597 296 568 339 597 b 556 361 497 597 556 514 b 394 125 556 208 497 125 b 261 189 321 125 297 161 z "},"c":{"ha":694,"x_min":0,"x_max":0,"o":"m 632 543 b 347 736 592 664 483 736 b 33 361 151 736 33 590 b 347 -14 33 132 151 -14 b 636 167 479 -15 567 38 l 506 240 b 353 125 471 176 428 125 b 206 361 251 125 206 200 b 347 597 206 522 251 597 b 489 488 431 597 461 549 z "},"d":{"ha":772,"x_min":0,"x_max":0,"o":"m 683 1003 l 511 1003 l 511 656 l 508 656 b 333 736 474 701 392 736 b 44 381 147 736 44 558 b 333 -14 44 156 142 -14 b 529 78 411 -14 468 18 l 538 0 l 683 0 z m 511 189 b 378 125 475 161 451 125 b 217 361 275 125 217 208 b 378 597 217 514 275 597 b 511 536 433 597 476 568 z "},"e":{"ha":694,"x_min":0,"x_max":0,"o":"m 206 450 b 344 608 208 550 261 608 b 483 450 428 608 481 550 z m 642 333 l 642 404 b 347 736 642 578 536 738 b 33 361 151 736 33 590 b 339 -14 33 132 151 -14 b 642 133 478 -14 575 31 l 517 211 b 356 125 474 161 436 125 b 206 333 275 125 208 183 z "},"f":{"ha":463,"x_min":0,"x_max":0,"o":"m 435 583 l 435 722 l 289 722 l 289 800 b 386 878 289 856 314 878 l 433 878 l 433 1017 l 319 1017 b 115 811 178 1017 115 967 l 115 722 l 17 722 l 17 583 l 117 583 l 117 0 l 289 0 l 289 583 z "},"g":{"ha":694,"x_min":0,"x_max":0,"o":"m 297 14 b 515 -69 464 14 515 -36 b 367 -150 515 -94 478 -150 b 175 -69 222 -150 175 -125 b 297 14 175 -39 203 14 z m 447 489 b 329 369 447 422 394 369 b 204 489 256 369 204 422 b 329 608 204 556 256 608 b 447 489 394 608 447 556 z m 678 736 b 508 672 596 739 542 717 b 331 736 464 711 392 736 b 46 485 143 736 46 611 b 153 293 46 397 93 342 b 40 161 121 283 40 231 b 147 44 40 83 114 65 l 147 42 b 17 -92 85 42 17 -1 b 339 -264 17 -206 144 -264 b 674 -50 569 -264 674 -153 b 199 197 674 239 199 81 b 333 242 199 239 258 242 b 606 475 514 242 606 339 b 567 603 606 531 589 572 b 678 619 593 619 638 619 z "},"h":{"ha":772,"x_min":0,"x_max":0,"o":"m 261 0 l 261 521 b 422 597 290 554 347 597 b 511 469 481 597 511 567 l 511 0 l 683 0 l 683 494 b 469 736 683 642 614 736 b 261 644 385 736 314 689 l 261 1003 l 89 1003 l 89 0 z "},"i":{"ha":386,"x_min":0,"x_max":0,"o":"m 279 722 l 107 722 l 107 0 l 279 0 z m 279 856 l 279 1017 l 107 1017 l 107 856 z "},"j":{"ha":386,"x_min":0,"x_max":0,"o":"m 4 -253 b 94 -264 31 -260 60 -264 b 297 -56 236 -264 297 -203 l 297 722 l 125 722 l 125 -28 b 61 -117 125 -97 101 -117 b 4 -112 36 -117 22 -114 z m 297 856 l 297 1017 l 125 1017 l 125 856 z "},"k":{"ha":694,"x_min":0,"x_max":0,"o":"m 261 0 l 261 222 l 349 324 l 508 0 l 692 0 l 464 453 l 676 722 l 479 722 l 267 443 l 261 443 l 261 1003 l 89 1003 l 89 0 z "},"l":{"ha":386,"x_min":0,"x_max":0,"o":"m 279 0 l 279 1003 l 107 1003 l 107 0 z "},"m":{"ha":1157,"x_min":0,"x_max":0,"o":"m 261 0 l 261 519 b 406 597 301 557 361 597 b 492 504 468 594 492 563 l 492 0 l 664 0 l 664 519 b 808 597 704 557 764 597 b 894 504 871 594 894 563 l 894 0 l 1067 0 l 1067 519 b 889 736 1067 692 964 736 b 640 631 769 736 700 690 b 463 736 608 700 538 736 b 246 644 364 736 311 704 l 246 722 l 89 722 l 89 0 z "},"n":{"ha":772,"x_min":0,"x_max":0,"o":"m 261 0 l 261 521 b 422 597 290 554 347 597 b 511 469 481 597 511 567 l 511 0 l 683 0 l 683 494 b 469 736 683 642 614 736 b 247 644 385 736 311 689 l 247 722 l 89 722 l 89 0 z "},"o":{"ha":694,"x_min":0,"x_max":0,"o":"m 489 361 b 347 125 489 200 443 125 b 206 361 251 125 206 200 b 347 597 206 522 251 597 b 489 361 443 597 489 522 z m 33 361 b 347 -14 33 132 151 -14 b 661 361 543 -14 661 132 b 347 736 661 590 543 736 b 33 361 151 736 33 590 z "},"p":{"ha":772,"x_min":0,"x_max":0,"o":"m 89 -264 l 261 -264 l 261 67 l 264 67 b 439 -14 299 21 381 -14 b 728 342 625 -14 728 164 b 439 736 728 567 631 736 b 254 656 361 736 304 704 l 254 722 l 89 722 z m 261 533 b 394 597 297 561 321 597 b 556 361 497 597 556 514 b 394 125 556 208 497 125 b 261 186 339 125 296 154 z "},"q":{"ha":772,"x_min":0,"x_max":0,"o":"m 683 722 l 549 722 l 529 644 b 333 736 468 704 411 736 b 44 342 142 736 44 567 b 333 -14 44 164 147 -14 b 508 67 392 -14 474 21 l 511 67 l 511 -264 l 683 -264 z m 511 186 b 378 125 476 154 433 125 b 217 361 275 125 217 208 b 378 597 217 514 275 597 b 511 533 451 597 475 561 z "},"r":{"ha":463,"x_min":0,"x_max":0,"o":"m 250 0 l 250 439 b 411 556 250 457 325 556 b 442 554 424 556 433 556 l 442 736 b 239 599 339 733 281 685 l 236 599 l 236 722 l 78 722 l 78 0 z "},"s":{"ha":617,"x_min":0,"x_max":0,"o":"m 549 626 b 294 736 486 700 390 736 b 56 526 169 736 56 661 b 417 196 56 275 417 319 b 314 114 417 147 375 114 b 146 218 240 114 186 163 l 31 132 b 304 -14 94 38 189 -14 b 569 203 456 -14 569 53 b 208 538 569 467 208 414 b 306 608 208 581 239 608 b 440 532 360 608 406 569 z "},"t":{"ha":463,"x_min":0,"x_max":0,"o":"m 17 722 l 17 583 l 117 583 l 117 153 b 294 -14 117 50 167 -14 b 431 -3 342 -14 383 -8 l 431 139 b 351 125 406 133 378 125 b 289 175 308 125 289 136 l 289 583 l 431 583 l 431 722 l 289 722 l 289 961 l 117 961 l 117 722 z "},"u":{"ha":772,"x_min":0,"x_max":0,"o":"m 511 722 l 511 201 b 350 125 482 168 425 125 b 261 253 292 125 261 156 l 261 722 l 89 722 l 89 228 b 303 -14 89 81 158 -14 b 525 78 388 -14 461 33 l 525 0 l 683 0 l 683 722 z "},"v":{"ha":617,"x_min":0,"x_max":0,"o":"m 215 0 l 396 0 l 603 722 l 431 722 l 308 233 l 306 233 l 186 722 l 14 722 z "},"w":{"ha":926,"x_min":0,"x_max":0,"o":"m 200 0 l 356 0 l 461 450 l 464 450 l 571 0 l 726 0 l 913 722 l 749 722 l 646 272 l 643 272 l 543 722 l 383 722 l 279 272 l 276 272 l 178 722 l 14 722 z "},"x":{"ha":617,"x_min":0,"x_max":0,"o":"m 6 0 l 190 0 l 307 225 l 428 0 l 611 0 l 392 375 l 594 722 l 408 722 l 306 522 l 204 722 l 14 722 l 218 375 z "},"y":{"ha":617,"x_min":0,"x_max":0,"o":"m 14 -258 b 97 -264 35 -261 56 -264 b 376 -1 239 -264 300 -208 l 604 722 l 432 722 l 308 278 l 306 278 l 186 722 l 13 722 l 206 106 b 228 19 214 76 228 46 b 200 -65 228 -10 217 -31 b 86 -122 179 -106 146 -122 b 14 -117 61 -122 40 -122 z "},"z":{"ha":617,"x_min":0,"x_max":0,"o":"m 54 583 l 374 583 l 25 122 l 25 0 l 592 0 l 592 139 l 242 139 l 589 600 l 589 722 l 54 722 z "},"{":{"ha":463,"x_min":0,"x_max":0,"o":"m 11 408 b 108 318 67 408 108 374 l 108 49 b 286 -117 108 -65 183 -117 l 385 -117 l 385 -33 l 317 -33 b 258 36 278 -33 258 0 l 258 300 b 153 449 258 392 228 431 l 153 451 b 258 600 228 469 258 508 l 258 864 b 317 933 258 900 278 933 l 385 933 l 385 1017 l 286 1017 b 108 851 183 1017 108 965 l 108 582 b 11 492 108 526 67 492 z "},"|":{"ha":308,"x_min":0,"x_max":0,"o":"m 79 -14 l 229 -14 l 229 1017 l 79 1017 z "},"}":{"ha":463,"x_min":0,"x_max":0,"o":"m 451 492 b 354 582 396 492 354 526 l 354 851 b 176 1017 354 965 279 1017 l 78 1017 l 78 933 l 146 933 b 204 864 185 933 204 900 l 204 600 b 310 451 204 508 235 469 l 310 449 b 204 300 235 431 204 392 l 204 36 b 146 -33 204 0 185 -33 l 78 -33 l 78 -117 l 176 -117 b 354 49 279 -117 354 -65 l 354 318 b 451 408 354 374 396 408 z "},"~":{"ha":833,"x_min":0,"x_max":0,"o":"m 688 486 b 565 386 656 438 621 386 b 269 481 494 386 372 481 b 97 361 176 481 126 419 l 146 236 b 267 336 168 285 201 336 b 392 303 317 336 356 321 b 556 240 446 275 492 240 b 736 361 650 240 696 303 z "},"¡":{"ha":463,"x_min":0,"x_max":0,"o":"m 129 -250 l 335 -250 l 299 414 l 165 414 z m 136 753 l 136 556 l 328 556 l 328 753 z "},"¢":{"ha":849,"x_min":0,"x_max":0,"o":"m 321 175 b 272 361 290 213 272 274 b 428 597 272 522 332 597 b 471 592 444 597 458 596 z m 536 547 b 569 488 549 529 560 510 l 713 543 b 589 694 690 610 647 663 l 653 872 l 572 872 l 519 725 b 428 736 492 732 461 736 b 114 361 232 736 114 590 b 268 28 114 204 169 85 l 196 -174 l 276 -174 l 339 -3 b 428 -14 367 -10 396 -14 b 717 167 560 -15 647 38 l 586 240 b 433 125 551 176 508 125 b 388 132 417 125 401 126 z "},"£":{"ha":849,"x_min":0,"x_max":0,"o":"m 543 436 l 543 567 l 363 567 b 339 722 349 619 339 664 b 454 867 339 796 365 867 b 593 721 553 867 583 808 l 760 721 b 464 1017 760 903 647 1017 b 158 740 264 1017 158 919 b 176 567 158 675 167 619 l 64 567 l 64 436 l 196 436 b 201 356 200 410 201 383 b 72 158 201 274 176 167 l 72 -14 b 267 72 154 -17 224 22 b 550 -14 357 15 417 -14 b 783 303 708 -14 783 131 l 617 303 b 508 147 610 228 606 147 b 343 206 446 147 396 174 b 382 436 372 261 382 375 z "},"⁄":{"ha":232,"x_min":0,"x_max":0,"o":"m -232 -14 l -108 -14 l 464 1017 l 342 1017 z "},"¥":{"ha":849,"x_min":0,"x_max":0,"o":"m 503 281 l 753 281 l 753 411 l 508 411 l 557 506 l 753 506 l 753 636 l 622 636 l 810 1003 l 638 1003 l 424 572 l 211 1003 l 39 1003 l 226 636 l 94 636 l 94 506 l 292 506 l 339 411 l 94 411 l 94 281 l 344 281 l 344 0 l 503 0 z "},"ƒ":{"ha":849,"x_min":0,"x_max":0,"o":"m 81 -253 b 179 -264 110 -258 140 -265 b 542 508 451 -254 438 19 l 708 508 l 708 639 l 565 639 b 681 872 585 789 604 872 b 746 857 704 872 724 865 l 768 1004 b 660 1017 736 1011 701 1017 b 394 639 493 1017 446 908 l 229 639 l 229 508 l 364 508 b 182 -119 254 -81 246 -119 b 107 -106 147 -119 126 -111 z "},"§":{"ha":694,"x_min":0,"x_max":0,"o":"m 563 906 b 342 1017 490 992 440 1017 b 156 856 233 1017 156 956 b 221 700 156 790 179 750 b 69 539 133 694 69 629 b 415 67 69 367 415 194 b 333 -3 415 17 381 -3 b 218 75 283 -3 244 35 l 124 1 b 346 -117 181 -65 254 -117 b 546 61 453 -117 546 -54 b 475 224 546 124 517 179 b 625 382 589 243 625 321 b 286 844 625 569 286 733 b 354 903 286 878 317 903 b 468 829 403 903 439 864 z m 200 553 b 260 608 200 585 229 608 b 396 510 289 608 321 590 b 494 374 458 443 494 407 b 433 318 494 340 469 318 b 293 424 407 318 361 353 b 200 553 226 493 200 529 z "},"¤":{"ha":849,"x_min":0,"x_max":0,"o":"m 785 775 l 699 864 l 622 793 b 424 854 567 831 497 854 b 225 793 350 854 281 831 l 149 864 l 63 775 l 135 703 b 71 501 94 644 71 575 b 135 300 71 428 94 358 l 63 228 l 149 139 l 225 210 b 424 149 281 172 350 149 b 622 210 497 149 567 172 l 699 139 l 785 228 l 713 300 b 776 501 753 358 776 428 b 713 703 776 575 753 644 z m 229 501 b 424 707 229 619 311 707 b 618 501 536 707 618 619 b 424 296 618 383 536 296 b 229 501 311 296 229 383 z "},"'":{"ha":308,"x_min":0,"x_max":0,"o":"m 76 625 l 232 625 l 232 1003 l 76 1003 z "},"“":{"ha":617,"x_min":0,"x_max":0,"o":"m 547 1017 l 457 1017 l 368 808 l 368 611 l 560 611 l 560 808 l 476 808 z m 238 1017 l 147 1017 l 58 808 l 58 611 l 250 611 l 250 808 l 167 808 z "},"«":{"ha":772,"x_min":0,"x_max":0,"o":"m 83 357 l 250 139 l 406 139 l 235 357 l 406 583 l 250 583 z m 367 357 l 533 139 l 689 139 l 518 357 l 689 583 l 533 583 z "},"‹":{"ha":463,"x_min":0,"x_max":0,"o":"m 57 357 l 224 139 l 379 139 l 208 357 l 379 583 l 224 583 z "},"›":{"ha":463,"x_min":0,"x_max":0,"o":"m 239 583 l 83 583 l 254 357 l 83 139 l 239 139 l 406 357 z "},"ﬁ":{"ha":772,"x_min":0,"x_max":0,"o":"m 683 722 l 511 722 l 511 0 l 683 0 z m 683 856 l 683 1017 l 511 1017 l 511 856 z m 435 583 l 435 722 l 289 722 l 289 800 b 386 878 289 856 314 878 l 433 878 l 433 1017 l 319 1017 b 115 811 178 1017 115 967 l 115 722 l 17 722 l 17 583 l 117 583 l 117 0 l 289 0 l 289 583 z "},"ﬂ":{"ha":772,"x_min":0,"x_max":0,"o":"m 683 0 l 683 1003 l 511 1003 l 511 0 z m 435 583 l 435 722 l 289 722 l 289 800 b 386 878 289 856 314 878 l 433 878 l 433 1017 l 319 1017 b 115 811 178 1017 115 967 l 115 722 l 17 722 l 17 583 l 117 583 l 117 0 l 289 0 l 289 583 z "},"–":{"ha":694,"x_min":0,"x_max":0,"o":"m 694 303 l 694 419 l 0 419 l 0 303 z "},"†":{"ha":694,"x_min":0,"x_max":0,"o":"m 600 792 l 381 750 l 417 1017 l 278 1017 l 314 750 l 94 792 l 94 644 l 314 686 l 278 463 l 322 -103 l 372 -103 l 417 463 l 381 686 l 600 644 z "},"‡":{"ha":694,"x_min":0,"x_max":0,"o":"m 278 457 l 314 217 l 94 258 l 94 111 l 314 153 l 278 -103 l 417 -103 l 381 153 l 600 111 l 600 258 l 381 217 l 417 457 l 381 697 l 600 656 l 600 803 l 381 761 l 417 1017 l 278 1017 l 314 761 l 94 803 l 94 656 l 314 697 z "},"·":{"ha":424,"x_min":0,"x_max":0,"o":"m 317 361 b 208 467 317 419 267 467 b 106 361 151 467 106 418 b 208 256 106 303 150 256 b 317 361 268 256 317 301 z "},"¶":{"ha":861,"x_min":0,"x_max":0,"o":"m 306 -94 l 447 -94 l 447 886 l 571 886 l 571 -94 l 713 -94 l 713 886 l 814 886 l 814 1003 l 322 1003 b 31 753 176 1003 31 950 b 306 513 31 604 142 513 z "},"•":{"ha":694,"x_min":0,"x_max":0,"o":"m 96 501 b 346 250 96 363 207 250 b 597 501 485 250 597 363 b 346 751 597 640 485 751 b 96 501 207 751 96 640 z "},"‚":{"ha":386,"x_min":0,"x_max":0,"o":"m 110 -208 l 200 -208 l 289 0 l 289 197 l 97 197 l 97 0 l 181 0 z "},"„":{"ha":617,"x_min":0,"x_max":0,"o":"m 69 -208 l 160 -208 l 249 0 l 249 197 l 57 197 l 57 0 l 140 0 z m 379 -208 l 469 -208 l 558 0 l 558 197 l 367 197 l 367 0 l 450 0 z "},"”":{"ha":617,"x_min":0,"x_max":0,"o":"m 69 597 l 160 597 l 249 806 l 249 1003 l 57 1003 l 57 806 l 140 806 z m 379 597 l 469 597 l 558 806 l 558 1003 l 367 1003 l 367 806 l 450 806 z "},"»":{"ha":772,"x_min":0,"x_max":0,"o":"m 689 365 l 522 583 l 367 583 l 538 365 l 367 139 l 522 139 z m 406 365 l 239 583 l 83 583 l 254 365 l 83 139 l 239 139 z "},"…":{"ha":1389,"x_min":0,"x_max":0,"o":"m 1256 0 l 1256 197 l 1058 197 l 1058 0 z m 793 0 l 793 197 l 596 197 l 596 0 z m 331 0 l 331 197 l 133 197 l 133 0 z "},"‰":{"ha":1389,"x_min":0,"x_max":0,"o":"m 225 1003 b 19 797 111 1003 19 910 b 225 592 19 685 111 592 b 431 797 339 592 431 685 b 225 1003 431 910 339 1003 z m 225 889 b 317 797 278 889 317 849 b 225 706 317 746 278 706 b 133 797 172 706 133 746 b 225 889 133 849 172 889 z m 663 297 b 754 206 715 297 754 257 b 663 114 754 154 715 114 b 571 206 610 114 571 154 b 663 297 571 257 610 297 z m 663 411 b 457 206 549 411 457 318 b 663 0 457 93 549 0 b 868 206 776 0 868 93 b 663 411 868 318 776 411 z m 1164 297 b 1256 206 1217 297 1256 257 b 1164 114 1256 154 1217 114 b 1072 206 1111 114 1072 154 b 1164 297 1072 257 1111 297 z m 1164 411 b 958 206 1050 411 958 318 b 1164 0 958 93 1050 0 b 1369 206 1278 0 1369 93 b 1164 411 1369 318 1278 411 z m 106 -14 l 213 -14 l 779 1017 l 672 1017 z "},"¿":{"ha":617,"x_min":0,"x_max":0,"o":"m 265 415 l 265 364 b 165 171 265 286 215 231 b 65 -42 115 113 65 50 b 317 -264 65 -186 181 -264 b 603 -47 465 -264 568 -185 l 443 -3 b 328 -125 435 -61 393 -125 b 240 -50 282 -125 240 -92 b 329 129 240 8 285 67 b 418 339 374 192 418 260 l 418 415 z m 243 753 l 243 556 l 435 556 l 435 753 z "},"`":{"ha":386,"x_min":0,"x_max":0,"o":"m -39 1017 l 164 814 l 306 814 l 175 1017 z "},"´":{"ha":386,"x_min":0,"x_max":0,"o":"m 211 1017 l 81 814 l 222 814 l 425 1017 z "},"ˆ":{"ha":386,"x_min":0,"x_max":0,"o":"m 106 1017 l -51 814 l 104 814 l 193 928 l 281 814 l 438 814 l 278 1017 z "},"˜":{"ha":386,"x_min":0,"x_max":0,"o":"m 357 1003 b 292 943 350 971 325 943 b 97 994 247 943 172 994 b -61 825 1 994 -49 911 l 25 825 b 89 882 36 857 51 882 b 293 833 144 882 224 833 b 447 1003 392 833 429 917 z "},"¯":{"ha":386,"x_min":0,"x_max":0,"o":"m 433 858 l 433 961 l -47 961 l -47 858 z "},"˘":{"ha":386,"x_min":0,"x_max":0,"o":"m 336 1017 b 194 919 319 940 269 919 b 50 1017 129 919 58 940 l -42 1017 b 183 814 -33 883 53 814 b 428 1017 321 814 408 879 z "},"˙":{"ha":386,"x_min":0,"x_max":0,"o":"m 110 989 l 110 828 l 276 828 l 276 989 z "},"¨":{"ha":386,"x_min":0,"x_max":0,"o":"m -22 989 l -22 828 l 144 828 l 144 989 z m 242 989 l 242 828 l 408 828 l 408 989 z "},"˚":{"ha":386,"x_min":0,"x_max":0,"o":"m 43 963 b 193 813 43 879 110 813 b 343 963 276 813 343 879 b 193 1113 343 1046 276 1113 b 43 963 110 1113 43 1046 z m 118 963 b 193 1038 118 1004 151 1038 b 268 963 235 1038 268 1004 b 193 888 268 921 235 888 b 118 963 151 888 118 921 z "},"¸":{"ha":386,"x_min":0,"x_max":0,"o":"m 29 -282 b 181 -318 78 -301 128 -318 b 357 -186 260 -318 357 -279 b 235 -81 357 -112 297 -81 b 185 -87 218 -81 201 -83 l 244 0 l 171 0 l 89 -125 l 117 -153 b 175 -144 131 -150 156 -144 b 235 -187 206 -144 235 -151 b 163 -246 235 -235 208 -246 b 54 -224 124 -246 78 -232 z "},"˝":{"ha":386,"x_min":0,"x_max":0,"o":"m 44 1017 l -61 814 l 75 814 l 258 1017 z m 314 1017 l 183 814 l 325 814 l 528 1017 z "},"˛":{"ha":386,"x_min":0,"x_max":0,"o":"m 358 29 b 40 -176 233 14 40 -36 b 186 -300 40 -260 107 -300 b 396 -221 264 -300 333 -262 l 368 -171 b 235 -228 332 -194 279 -228 b 163 -161 194 -228 163 -204 b 358 13 163 -68 285 -15 z "},"ˇ":{"ha":386,"x_min":0,"x_max":0,"o":"m 278 814 l 438 1017 l 281 1017 l 193 903 l 104 1017 l -51 1017 l 106 814 z "},"—":{"ha":1389,"x_min":0,"x_max":0,"o":"m 1389 303 l 1389 419 l 0 419 l 0 303 z "},"Æ":{"ha":1311,"x_min":0,"x_max":0,"o":"m 214 0 l 325 235 l 631 235 l 631 0 l 1258 0 l 1258 161 l 822 161 l 822 442 l 1114 442 l 1114 603 l 822 603 l 822 842 l 1243 842 l 1243 1003 l 514 1003 l 10 0 z m 404 396 l 628 864 l 631 864 l 631 396 z "},"ª":{"ha":417,"x_min":0,"x_max":0,"o":"m 399 575 b 389 638 390 594 389 615 l 389 842 b 208 1017 389 972 335 1014 b 33 938 140 1018 63 983 l 106 886 b 208 928 128 911 156 928 b 269 883 249 928 269 914 l 269 851 b 8 682 94 832 8 781 b 135 567 8 622 50 567 b 275 614 194 567 236 585 l 282 575 z m 269 689 b 174 656 254 671 210 656 b 128 694 143 656 128 667 b 269 782 128 756 201 769 z "},"Ł":{"ha":772,"x_min":0,"x_max":0,"o":"m 300 481 l 519 569 l 519 708 l 300 619 l 300 1003 l 108 1003 l 108 542 l 0 497 l 0 358 l 108 403 l 108 0 l 736 0 l 736 161 l 300 161 z "},"Ø":{"ha":926,"x_min":0,"x_max":0,"o":"m 667 693 b 692 501 683 643 692 579 b 463 147 692 267 619 147 b 331 189 408 147 365 161 z m 254 314 b 233 501 239 363 233 426 b 463 856 233 736 306 856 b 590 817 514 856 556 843 z m 911 1058 l 751 1058 l 686 958 b 463 1017 625 997 550 1017 b 42 501 189 1017 42 829 b 138 138 42 347 74 225 l -15 -92 l 143 -92 l 235 46 b 463 -14 296 6 372 -14 b 883 501 736 -14 883 174 b 785 869 883 657 850 782 z "},"Œ":{"ha":1311,"x_min":0,"x_max":0,"o":"m 638 369 b 444 147 638 192 583 147 b 210 501 317 147 208 200 b 444 856 208 803 317 856 b 638 633 583 856 638 811 z m 1129 603 l 829 603 l 829 842 l 1254 842 l 1254 1003 l 694 1003 b 576 1010 654 1003 614 1007 b 475 1017 539 1014 504 1017 b 18 501 151 1017 18 838 b 475 -14 18 165 151 -14 b 597 -7 517 -14 557 -10 b 718 0 638 -3 678 0 l 1278 0 l 1278 161 l 829 161 l 829 442 l 1129 442 z "},"º":{"ha":417,"x_min":0,"x_max":0,"o":"m 292 792 b 208 656 292 699 264 656 b 124 792 151 656 124 699 b 208 928 124 885 151 928 b 292 792 264 928 292 885 z m 4 792 b 208 567 4 654 81 567 b 411 792 335 567 411 654 b 208 1017 411 929 335 1017 b 4 792 81 1017 4 929 z "},"æ":{"ha":1081,"x_min":0,"x_max":0,"o":"m 444 190 b 281 114 403 160 335 114 b 197 199 232 114 197 144 b 444 346 197 300 324 324 z m 603 450 b 744 608 606 550 658 608 b 883 450 828 608 881 550 z m 1042 333 l 1042 404 b 739 736 1042 578 936 738 b 543 658 657 736 590 708 b 333 736 504 706 440 733 b 64 604 228 739 108 681 l 175 519 b 333 608 208 565 253 608 b 444 522 394 608 444 578 l 444 461 b 25 178 158 428 25 342 b 221 -14 25 79 90 -14 b 513 99 297 -14 375 0 b 739 -14 569 10 661 -14 b 1042 133 878 -14 975 31 l 917 211 b 753 125 874 161 836 125 b 603 261 664 125 603 181 l 603 333 z "},"ı":{"ha":386,"x_min":0,"x_max":0,"o":"m 279 722 l 107 722 l 107 0 l 279 0 z "},"ł":{"ha":386,"x_min":0,"x_max":0,"o":"m 279 526 l 386 581 l 386 719 l 279 665 l 279 1003 l 107 1003 l 107 579 l 0 525 l 0 386 l 107 440 l 107 0 l 279 0 z "},"ø":{"ha":694,"x_min":0,"x_max":0,"o":"m 478 475 b 489 361 485 443 489 406 b 347 125 489 200 443 125 b 292 136 326 125 307 129 z m 222 10 b 347 -14 260 -6 301 -14 b 661 361 543 -14 661 132 b 571 643 661 481 629 578 l 685 850 l 558 850 l 481 708 b 347 736 443 726 397 736 b 33 361 151 736 33 590 b 131 74 33 239 67 140 l 14 -139 l 140 -139 z m 219 235 b 206 361 210 269 206 311 b 347 597 206 522 251 597 b 411 582 372 597 393 592 z "},"œ":{"ha":1081,"x_min":0,"x_max":0,"o":"m 189 361 b 325 597 189 522 235 597 b 461 361 415 597 461 522 b 325 125 461 200 415 125 b 189 361 235 125 189 200 z m 619 450 b 751 608 622 550 675 608 b 883 450 828 608 881 550 z m 1042 333 l 1042 404 b 750 736 1042 578 936 738 b 546 643 665 736 594 704 b 322 736 494 707 417 736 b 17 361 135 736 17 590 b 322 -14 17 132 135 -14 b 549 82 419 -14 499 17 b 761 -14 596 22 667 -14 b 1042 133 878 -14 975 31 l 917 211 b 772 125 874 161 836 125 b 619 333 669 125 622 183 z "},"ß":{"ha":694,"x_min":0,"x_max":0,"o":"m 246 0 l 246 758 b 336 864 246 831 275 864 b 439 729 403 864 439 819 b 356 606 439 644 406 606 l 333 606 l 333 467 l 369 467 b 494 283 469 467 494 386 b 410 125 494 178 467 125 b 347 142 389 125 365 132 l 306 19 b 418 -14 331 0 389 -14 b 667 275 567 -14 667 56 b 500 550 667 436 597 522 l 500 553 b 606 758 583 594 606 661 b 333 1003 606 908 517 1003 b 74 764 158 1003 74 900 l 74 0 z "},"¹":{"ha":508,"x_min":0,"x_max":0,"o":"m 422 406 l 422 497 l 325 497 l 325 1017 l 232 1017 b 90 975 201 990 149 978 l 90 897 l 197 897 l 197 497 l 104 497 l 104 406 z "},"¬":{"ha":833,"x_min":0,"x_max":0,"o":"m 628 133 l 778 133 l 778 589 l 56 589 l 56 439 l 628 439 z "},"µ":{"ha":772,"x_min":0,"x_max":0,"o":"m 511 722 l 511 201 b 350 125 482 168 425 125 b 261 253 292 125 261 156 l 261 722 l 89 722 l 89 -264 l 261 -264 l 261 -11 b 303 -14 274 -12 288 -14 b 525 78 388 -14 461 33 l 525 0 l 683 0 l 683 722 z "},"™":{"ha":1389,"x_min":0,"x_max":0,"o":"m 825 1003 l 618 1003 l 618 431 l 757 431 l 757 822 l 763 822 l 901 431 l 1008 431 l 1147 824 l 1153 821 l 1153 431 l 1292 431 l 1292 1003 l 1085 1003 l 957 644 l 954 644 z m 504 1003 l 31 1003 l 31 886 l 197 886 l 197 431 l 336 431 l 336 886 l 504 886 z "},"Ð":{"ha":926,"x_min":0,"x_max":0,"o":"m 108 0 l 440 0 b 890 501 706 0 889 147 b 440 1003 889 856 706 1003 l 108 1003 l 108 603 l 15 603 l 15 431 l 108 431 z m 300 842 l 428 842 b 699 501 647 842 699 681 b 428 161 699 322 647 161 l 300 161 l 300 431 l 507 431 l 507 603 l 300 603 z "},"½":{"ha":1272,"x_min":0,"x_max":0,"o":"m 271 -14 l 394 -14 l 967 1017 l 844 1017 z m 436 406 l 436 497 l 339 497 l 339 1017 l 246 1017 b 104 975 215 990 163 978 l 104 897 l 211 897 l 211 497 l 118 497 l 118 406 z m 1178 0 l 1178 100 l 878 100 b 1178 438 1031 231 1178 292 b 965 611 1178 550 1081 611 b 742 439 849 611 756 539 l 846 418 b 964 511 861 472 899 511 b 1056 429 1024 511 1056 482 b 739 100 1056 328 758 194 l 739 0 z "},"±":{"ha":833,"x_min":0,"x_max":0,"o":"m 342 539 l 56 539 l 56 389 l 342 389 l 342 204 l 492 204 l 492 389 l 778 389 l 778 539 l 492 539 l 492 722 l 342 722 z m 56 0 l 778 0 l 778 150 l 56 150 z "},"Þ":{"ha":849,"x_min":0,"x_max":0,"o":"m 286 0 l 286 221 l 461 221 b 815 519 678 221 815 311 b 461 818 815 728 678 818 l 286 818 l 286 1003 l 94 1003 l 94 0 z m 286 663 l 439 663 b 624 519 583 663 624 608 b 439 376 624 431 583 376 l 286 376 z "},"¼":{"ha":1272,"x_min":0,"x_max":0,"o":"m 1018 231 l 842 231 l 1015 475 l 1018 475 z m 736 139 l 1018 139 l 1018 0 l 1146 0 l 1146 139 l 1233 139 l 1233 231 l 1146 231 l 1146 603 l 1003 603 l 736 256 z m 293 -14 l 417 -14 l 989 1017 l 867 1017 z m 436 406 l 436 497 l 339 497 l 339 1017 l 246 1017 b 104 975 215 990 163 978 l 104 897 l 211 897 l 211 497 l 118 497 l 118 406 z "},"÷":{"ha":833,"x_min":0,"x_max":0,"o":"m 778 286 l 778 436 l 56 436 l 56 286 z m 540 624 b 415 747 540 685 483 747 b 294 624 351 747 294 685 b 415 501 294 563 351 501 b 540 624 483 501 540 563 z m 540 97 b 415 221 540 158 483 221 b 294 97 351 221 294 158 b 415 -25 294 36 351 -25 b 540 97 483 -25 540 36 z "},"¦":{"ha":308,"x_min":0,"x_max":0,"o":"m 79 -14 l 229 -14 l 229 378 l 79 378 z m 79 625 l 229 625 l 229 1017 l 79 1017 z "},"°":{"ha":556,"x_min":0,"x_max":0,"o":"m 278 619 b 476 818 389 619 476 707 b 278 1017 476 929 389 1017 b 79 818 167 1017 79 929 b 278 619 79 707 167 619 z m 168 818 b 278 933 168 879 217 933 b 388 818 339 933 388 879 b 278 703 388 757 339 703 b 168 818 217 703 168 757 z "},"þ":{"ha":772,"x_min":0,"x_max":0,"o":"m 89 -264 l 261 -264 l 261 67 l 264 67 b 439 -14 299 21 381 -14 b 728 342 625 -14 728 164 b 439 736 728 567 631 736 b 254 656 361 736 304 704 l 254 1003 l 89 1003 z m 261 533 b 394 597 297 561 321 597 b 556 361 497 597 556 514 b 394 125 556 208 497 125 b 261 186 339 125 296 154 z "},"¾":{"ha":1272,"x_min":0,"x_max":0,"o":"m 189 681 b 378 588 265 681 378 678 b 271 497 378 529 328 497 b 133 572 208 497 165 524 l 39 524 b 269 397 85 439 178 397 b 500 579 385 397 500 454 b 381 731 500 654 458 710 l 381 733 b 478 863 443 757 478 801 b 272 1017 478 964 392 1017 b 65 924 189 1017 129 993 l 143 857 b 268 917 175 889 213 915 b 356 849 322 915 356 888 b 189 772 356 785 282 772 z m 313 -14 l 436 -14 l 1008 1017 l 886 1017 z m 736 139 l 1018 139 l 1018 0 l 1146 0 l 1146 139 l 1233 139 l 1233 231 l 1146 231 l 1146 603 l 1003 603 l 736 256 z m 1018 231 l 842 231 l 1015 475 l 1018 475 z "},"²":{"ha":508,"x_min":0,"x_max":0,"o":"m 467 406 l 467 506 l 167 506 b 467 843 319 636 467 697 b 254 1017 467 956 369 1017 b 31 844 138 1017 44 944 l 135 824 b 253 917 150 878 188 917 b 344 835 313 917 344 888 b 28 506 344 733 47 600 l 28 406 z "},"®":{"ha":1111,"x_min":0,"x_max":0,"o":"m 468 457 l 525 457 l 657 219 l 781 219 l 633 464 b 789 614 729 469 789 510 b 558 785 789 743 706 785 l 346 785 l 346 219 l 468 219 z m 468 690 l 569 690 b 667 626 628 690 667 678 b 575 551 667 583 642 551 l 468 551 z m 556 -14 b 1086 501 833 -14 1086 178 b 556 1017 1086 825 833 1017 b 25 501 278 1017 25 825 b 556 -14 25 178 278 -14 z m 950 501 b 556 86 950 256 771 86 b 161 501 336 86 161 256 b 556 917 161 747 336 917 b 950 501 771 917 950 747 z "},"−":{"ha":833,"x_min":0,"x_max":0,"o":"m 778 286 l 778 436 l 56 436 l 56 286 z "},"ð":{"ha":694,"x_min":0,"x_max":0,"o":"m 347 125 b 206 339 251 125 206 200 b 347 553 206 478 251 553 b 489 339 443 553 489 478 b 347 125 489 200 443 125 z m 192 956 b 282 869 224 929 254 901 l 156 808 l 206 719 l 347 788 b 406 685 369 757 390 722 b 347 692 382 690 365 692 b 33 339 151 692 33 546 b 347 -14 33 132 151 -14 b 661 339 543 -14 661 132 b 486 854 661 513 594 708 l 608 914 l 558 1003 l 419 936 b 342 1003 394 961 369 983 z "},"×":{"ha":833,"x_min":0,"x_max":0,"o":"m 417 256 l 671 0 l 778 108 l 524 363 l 778 617 l 671 722 l 417 469 l 163 722 l 56 617 l 310 363 l 56 108 l 163 0 z "},"³":{"ha":508,"x_min":0,"x_max":0,"o":"m 167 681 b 356 588 243 681 356 678 b 249 497 356 529 306 497 b 111 572 186 497 143 524 l 17 524 b 247 397 63 439 156 397 b 478 579 363 397 478 454 b 358 731 478 654 436 710 l 358 733 b 456 863 421 757 456 801 b 250 1017 456 964 369 1017 b 43 924 167 1017 107 993 l 121 857 b 246 917 153 889 190 915 b 333 849 300 915 333 888 b 167 772 333 785 260 772 z "},"©":{"ha":1111,"x_min":0,"x_max":0,"o":"m 556 -14 b 1086 501 833 -14 1086 178 b 556 1017 1086 825 833 1017 b 25 501 278 1017 25 825 b 556 -14 25 178 278 -14 z m 950 501 b 556 86 950 256 771 86 b 161 501 336 86 161 256 b 556 917 161 747 336 917 b 950 501 771 917 950 747 z m 700 424 b 576 328 693 357 644 328 b 433 508 490 328 433 406 b 574 683 433 615 483 683 b 700 594 633 683 688 658 l 819 594 b 574 806 797 733 697 806 b 286 506 396 806 286 678 b 576 206 286 336 401 206 b 825 424 696 206 803 282 z "},"Á":{"ha":849,"x_min":0,"x_max":0,"o":"m 428 811 l 431 811 l 543 375 l 310 375 z m 18 0 l 208 0 l 268 217 l 585 217 l 640 0 l 831 0 l 546 1004 l 307 1004 z m 443 1261 l 313 1058 l 454 1058 l 657 1261 z "},"Â":{"ha":849,"x_min":0,"x_max":0,"o":"m 428 811 l 431 811 l 543 375 l 310 375 z m 18 0 l 208 0 l 268 217 l 585 217 l 640 0 l 831 0 l 546 1004 l 307 1004 z m 338 1261 l 181 1058 l 336 1058 l 425 1172 l 513 1058 l 669 1058 l 510 1261 z "},"Ä":{"ha":849,"x_min":0,"x_max":0,"o":"m 428 811 l 431 811 l 543 375 l 310 375 z m 18 0 l 208 0 l 268 217 l 585 217 l 640 0 l 831 0 l 546 1004 l 307 1004 z m 210 1233 l 210 1072 l 376 1072 l 376 1233 z m 474 1233 l 474 1072 l 640 1072 l 640 1233 z "},"À":{"ha":849,"x_min":0,"x_max":0,"o":"m 428 811 l 431 811 l 543 375 l 310 375 z m 18 0 l 208 0 l 268 217 l 585 217 l 640 0 l 831 0 l 546 1004 l 307 1004 z m 193 1261 l 396 1058 l 538 1058 l 407 1261 z "},"Å":{"ha":849,"x_min":0,"x_max":0,"o":"m 428 811 l 431 811 l 543 375 l 310 375 z m 18 0 l 208 0 l 268 217 l 585 217 l 640 0 l 831 0 l 546 1004 l 307 1004 z m 275 1207 b 425 1057 275 1124 342 1057 b 575 1207 508 1057 575 1124 b 425 1357 575 1290 508 1357 b 275 1207 342 1357 275 1290 z m 350 1207 b 425 1282 350 1249 383 1282 b 500 1207 467 1282 500 1249 b 425 1132 500 1165 467 1132 b 350 1207 383 1132 350 1165 z "},"Ã":{"ha":849,"x_min":0,"x_max":0,"o":"m 428 811 l 431 811 l 543 375 l 310 375 z m 18 0 l 208 0 l 268 217 l 585 217 l 640 0 l 831 0 l 546 1004 l 307 1004 z m 589 1247 b 524 1188 582 1215 557 1188 b 329 1239 479 1188 404 1239 b 171 1069 233 1239 183 1156 l 257 1069 b 321 1126 268 1101 283 1126 b 525 1078 376 1126 456 1078 b 679 1247 624 1078 661 1161 z "},"Ç":{"ha":849,"x_min":0,"x_max":0,"o":"m 794 753 b 444 1017 747 931 636 1017 b 42 501 189 1017 42 829 b 407 -12 42 190 175 6 l 333 -125 l 361 -153 b 419 -144 375 -150 400 -144 b 479 -187 450 -144 479 -151 b 407 -246 479 -235 453 -246 b 299 -224 368 -246 322 -232 l 274 -282 b 425 -318 322 -301 372 -318 b 601 -186 504 -318 601 -279 b 479 -81 601 -112 542 -81 b 429 -87 463 -81 446 -83 l 481 -12 b 818 249 644 -1 763 86 l 640 296 b 444 147 583 178 531 147 b 233 501 300 147 232 267 b 439 856 235 736 311 856 b 621 711 533 856 593 796 z "},"É":{"ha":849,"x_min":0,"x_max":0,"o":"m 796 0 l 796 161 l 308 161 l 308 442 l 651 442 l 651 603 l 308 603 l 308 842 l 781 842 l 781 1003 l 117 1003 l 117 0 z m 469 1261 l 339 1058 l 481 1058 l 683 1261 z "},"Ê":{"ha":849,"x_min":0,"x_max":0,"o":"m 796 0 l 796 161 l 308 161 l 308 442 l 651 442 l 651 603 l 308 603 l 308 842 l 781 842 l 781 1003 l 117 1003 l 117 0 z m 364 1261 l 207 1058 l 363 1058 l 451 1172 l 539 1058 l 696 1058 l 536 1261 z "},"Ë":{"ha":849,"x_min":0,"x_max":0,"o":"m 796 0 l 796 161 l 308 161 l 308 442 l 651 442 l 651 603 l 308 603 l 308 842 l 781 842 l 781 1003 l 117 1003 l 117 0 z m 236 1233 l 236 1072 l 403 1072 l 403 1233 z m 500 1233 l 500 1072 l 667 1072 l 667 1233 z "},"È":{"ha":849,"x_min":0,"x_max":0,"o":"m 796 0 l 796 161 l 308 161 l 308 442 l 651 442 l 651 603 l 308 603 l 308 842 l 781 842 l 781 1003 l 117 1003 l 117 0 z m 219 1261 l 422 1058 l 564 1058 l 433 1261 z "},"Í":{"ha":463,"x_min":0,"x_max":0,"o":"m 326 0 l 326 1003 l 135 1003 l 135 0 z m 246 1261 l 115 1058 l 257 1058 l 460 1261 z "},"Î":{"ha":463,"x_min":0,"x_max":0,"o":"m 326 0 l 326 1003 l 135 1003 l 135 0 z m 140 1261 l -17 1058 l 139 1058 l 228 1172 l 315 1058 l 472 1058 l 313 1261 z "},"Ï":{"ha":463,"x_min":0,"x_max":0,"o":"m 326 0 l 326 1003 l 135 1003 l 135 0 z m 13 1233 l 13 1072 l 179 1072 l 179 1233 z m 276 1233 l 276 1072 l 443 1072 l 443 1233 z "},"Ì":{"ha":463,"x_min":0,"x_max":0,"o":"m 326 0 l 326 1003 l 135 1003 l 135 0 z m -4 1261 l 199 1058 l 340 1058 l 210 1261 z "},"Ñ":{"ha":1003,"x_min":0,"x_max":0,"o":"m 293 0 l 293 714 l 296 714 l 706 0 l 890 0 l 890 1003 l 710 1003 l 710 319 l 707 319 l 313 1003 l 113 1003 l 113 0 z m 665 1247 b 600 1188 658 1215 633 1188 b 406 1239 556 1188 481 1239 b 247 1069 310 1239 260 1156 l 333 1069 b 397 1126 344 1101 360 1126 b 601 1078 453 1126 532 1078 b 756 1247 700 1078 738 1161 z "},"Ó":{"ha":926,"x_min":0,"x_max":0,"o":"m 692 501 b 463 147 692 267 619 147 b 233 501 304 147 231 267 b 463 856 233 736 306 856 b 692 501 619 856 692 736 z m 883 501 b 463 1017 883 829 736 1017 b 42 501 189 1017 42 829 b 463 -14 42 174 189 -14 b 883 501 736 -14 883 174 z m 482 1261 l 351 1058 l 493 1058 l 696 1261 z "},"Ô":{"ha":926,"x_min":0,"x_max":0,"o":"m 692 501 b 463 147 692 267 619 147 b 233 501 304 147 231 267 b 463 856 233 736 306 856 b 692 501 619 856 692 736 z m 883 501 b 463 1017 883 829 736 1017 b 42 501 189 1017 42 829 b 463 -14 42 174 189 -14 b 883 501 736 -14 883 174 z m 376 1261 l 219 1058 l 375 1058 l 464 1172 l 551 1058 l 708 1058 l 549 1261 z "},"Ö":{"ha":926,"x_min":0,"x_max":0,"o":"m 692 501 b 463 147 692 267 619 147 b 233 501 304 147 231 267 b 463 856 233 736 306 856 b 692 501 619 856 692 736 z m 883 501 b 463 1017 883 829 736 1017 b 42 501 189 1017 42 829 b 463 -14 42 174 189 -14 b 883 501 736 -14 883 174 z m 249 1233 l 249 1072 l 415 1072 l 415 1233 z m 513 1233 l 513 1072 l 679 1072 l 679 1233 z "},"Ò":{"ha":926,"x_min":0,"x_max":0,"o":"m 692 501 b 463 147 692 267 619 147 b 233 501 304 147 231 267 b 463 856 233 736 306 856 b 692 501 619 856 692 736 z m 883 501 b 463 1017 883 829 736 1017 b 42 501 189 1017 42 829 b 463 -14 42 174 189 -14 b 883 501 736 -14 883 174 z m 232 1261 l 435 1058 l 576 1058 l 446 1261 z "},"Õ":{"ha":926,"x_min":0,"x_max":0,"o":"m 692 501 b 463 147 692 267 619 147 b 233 501 304 147 231 267 b 463 856 233 736 306 856 b 692 501 619 856 692 736 z m 883 501 b 463 1017 883 829 736 1017 b 42 501 189 1017 42 829 b 463 -14 42 174 189 -14 b 883 501 736 -14 883 174 z m 628 1247 b 563 1188 621 1215 596 1188 b 368 1239 518 1188 443 1239 b 210 1069 272 1239 222 1156 l 296 1069 b 360 1126 307 1101 322 1126 b 564 1078 415 1126 494 1078 b 718 1247 663 1078 700 1161 z "},"Š":{"ha":849,"x_min":0,"x_max":0,"o":"m 757 790 b 403 1017 697 936 564 1017 b 79 736 229 1017 79 915 b 596 269 79 428 596 467 b 426 136 596 172 522 136 b 208 293 314 136 254 199 l 50 224 b 425 -14 107 78 261 -14 b 776 294 647 -14 776 89 b 260 756 776 619 260 583 b 403 867 260 833 319 867 b 582 736 493 867 553 814 z m 510 1058 l 669 1261 l 513 1261 l 425 1147 l 336 1261 l 181 1261 l 338 1058 z "},"Ú":{"ha":1003,"x_min":0,"x_max":0,"o":"m 694 367 b 501 147 694 204 631 147 b 308 367 372 147 308 204 l 308 1003 l 117 1003 l 117 375 b 501 -14 117 82 297 -14 b 886 375 706 -14 886 82 l 886 1003 l 694 1003 z m 515 1261 l 385 1058 l 526 1058 l 729 1261 z "},"Û":{"ha":1003,"x_min":0,"x_max":0,"o":"m 694 367 b 501 147 694 204 631 147 b 308 367 372 147 308 204 l 308 1003 l 117 1003 l 117 375 b 501 -14 117 82 297 -14 b 886 375 706 -14 886 82 l 886 1003 l 694 1003 z m 410 1261 l 253 1058 l 408 1058 l 497 1172 l 585 1058 l 742 1058 l 582 1261 z "},"Ü":{"ha":1003,"x_min":0,"x_max":0,"o":"m 694 367 b 501 147 694 204 631 147 b 308 367 372 147 308 204 l 308 1003 l 117 1003 l 117 375 b 501 -14 117 82 297 -14 b 886 375 706 -14 886 82 l 886 1003 l 694 1003 z m 282 1233 l 282 1072 l 449 1072 l 449 1233 z m 546 1233 l 546 1072 l 713 1072 l 713 1233 z "},"Ù":{"ha":1003,"x_min":0,"x_max":0,"o":"m 694 367 b 501 147 694 204 631 147 b 308 367 372 147 308 204 l 308 1003 l 117 1003 l 117 375 b 501 -14 117 82 297 -14 b 886 375 706 -14 886 82 l 886 1003 l 694 1003 z m 265 1261 l 468 1058 l 610 1058 l 479 1261 z "},"Ý":{"ha":772,"x_min":0,"x_max":0,"o":"m 214 1003 l 14 1003 l 290 400 l 290 0 l 482 0 l 482 400 l 758 1003 l 558 1003 l 386 606 z m 404 1261 l 274 1058 l 415 1058 l 618 1261 z "},"Ÿ":{"ha":772,"x_min":0,"x_max":0,"o":"m 214 1003 l 14 1003 l 290 400 l 290 0 l 482 0 l 482 400 l 758 1003 l 558 1003 l 386 606 z m 171 1233 l 171 1072 l 338 1072 l 338 1233 z m 435 1233 l 435 1072 l 601 1072 l 601 1233 z "},"Ž":{"ha":772,"x_min":0,"x_max":0,"o":"m 736 161 l 247 161 l 732 850 l 732 1003 l 54 1003 l 54 842 l 490 842 l 22 163 l 22 0 l 736 0 z m 471 1058 l 631 1261 l 474 1261 l 386 1147 l 297 1261 l 142 1261 l 299 1058 z "},"á":{"ha":694,"x_min":0,"x_max":0,"o":"m 625 0 b 611 104 614 32 611 68 l 611 444 b 333 736 611 661 528 732 b 64 604 228 739 108 681 l 175 519 b 333 608 208 565 253 608 b 439 522 394 608 439 578 l 439 461 b 25 178 158 428 25 342 b 221 -14 25 79 90 -14 b 446 63 311 -14 376 15 l 457 0 z m 439 190 b 281 114 403 160 335 114 b 197 199 232 114 197 144 b 439 346 197 300 324 324 z m 365 1017 l 235 814 l 376 814 l 579 1017 z "},"â":{"ha":694,"x_min":0,"x_max":0,"o":"m 625 0 b 611 104 614 32 611 68 l 611 444 b 333 736 611 661 528 732 b 64 604 228 739 108 681 l 175 519 b 333 608 208 565 253 608 b 439 522 394 608 439 578 l 439 461 b 25 178 158 428 25 342 b 221 -14 25 79 90 -14 b 446 63 311 -14 376 15 l 457 0 z m 439 190 b 281 114 403 160 335 114 b 197 199 232 114 197 144 b 439 346 197 300 324 324 z m 260 1017 l 103 814 l 258 814 l 347 928 l 435 814 l 592 814 l 432 1017 z "},"ä":{"ha":694,"x_min":0,"x_max":0,"o":"m 625 0 b 611 104 614 32 611 68 l 611 444 b 333 736 611 661 528 732 b 64 604 228 739 108 681 l 175 519 b 333 608 208 565 253 608 b 439 522 394 608 439 578 l 439 461 b 25 178 158 428 25 342 b 221 -14 25 79 90 -14 b 446 63 311 -14 376 15 l 457 0 z m 439 190 b 281 114 403 160 335 114 b 197 199 232 114 197 144 b 439 346 197 300 324 324 z m 132 989 l 132 828 l 299 828 l 299 989 z m 396 989 l 396 828 l 563 828 l 563 989 z "},"à":{"ha":694,"x_min":0,"x_max":0,"o":"m 625 0 b 611 104 614 32 611 68 l 611 444 b 333 736 611 661 528 732 b 64 604 228 739 108 681 l 175 519 b 333 608 208 565 253 608 b 439 522 394 608 439 578 l 439 461 b 25 178 158 428 25 342 b 221 -14 25 79 90 -14 b 446 63 311 -14 376 15 l 457 0 z m 439 190 b 281 114 403 160 335 114 b 197 199 232 114 197 144 b 439 346 197 300 324 324 z m 115 1017 l 318 814 l 460 814 l 329 1017 z "},"å":{"ha":694,"x_min":0,"x_max":0,"o":"m 625 0 b 611 104 614 32 611 68 l 611 444 b 333 736 611 661 528 732 b 64 604 228 739 108 681 l 175 519 b 333 608 208 565 253 608 b 439 522 394 608 439 578 l 439 461 b 25 178 158 428 25 342 b 221 -14 25 79 90 -14 b 446 63 311 -14 376 15 l 457 0 z m 439 190 b 281 114 403 160 335 114 b 197 199 232 114 197 144 b 439 346 197 300 324 324 z m 197 963 b 347 813 197 879 264 813 b 497 963 431 813 497 879 b 347 1113 497 1046 431 1113 b 197 963 264 1113 197 1046 z m 272 963 b 347 1038 272 1004 306 1038 b 422 963 389 1038 422 1004 b 347 888 422 921 389 888 b 272 963 306 888 272 921 z "},"ã":{"ha":694,"x_min":0,"x_max":0,"o":"m 625 0 b 611 104 614 32 611 68 l 611 444 b 333 736 611 661 528 732 b 64 604 228 739 108 681 l 175 519 b 333 608 208 565 253 608 b 439 522 394 608 439 578 l 439 461 b 25 178 158 428 25 342 b 221 -14 25 79 90 -14 b 446 63 311 -14 376 15 l 457 0 z m 439 190 b 281 114 403 160 335 114 b 197 199 232 114 197 144 b 439 346 197 300 324 324 z m 511 1003 b 446 943 504 971 479 943 b 251 994 401 943 326 994 b 93 825 156 994 106 911 l 179 825 b 243 882 190 857 206 882 b 447 833 299 882 378 833 b 601 1003 546 833 583 917 z "},"ç":{"ha":694,"x_min":0,"x_max":0,"o":"m 632 543 b 347 736 592 664 483 736 b 33 361 151 736 33 590 b 317 -12 33 144 139 3 l 243 -125 l 271 -153 b 329 -144 285 -150 310 -144 b 389 -187 360 -144 389 -151 b 317 -246 389 -235 363 -246 b 208 -224 278 -246 232 -232 l 183 -282 b 335 -318 232 -301 282 -318 b 511 -186 414 -318 511 -279 b 389 -81 511 -112 451 -81 b 339 -87 372 -81 356 -83 l 390 -12 b 636 167 499 -3 575 53 l 506 240 b 353 125 471 176 428 125 b 206 361 251 125 206 200 b 347 597 206 522 251 597 b 489 488 431 597 461 549 z "},"é":{"ha":694,"x_min":0,"x_max":0,"o":"m 206 450 b 344 608 208 550 261 608 b 483 450 428 608 481 550 z m 642 333 l 642 404 b 347 736 642 578 536 738 b 33 361 151 736 33 590 b 339 -14 33 132 151 -14 b 642 133 478 -14 575 31 l 517 211 b 356 125 474 161 436 125 b 206 333 275 125 208 183 z m 365 1017 l 235 814 l 376 814 l 579 1017 z "},"ê":{"ha":694,"x_min":0,"x_max":0,"o":"m 206 450 b 344 608 208 550 261 608 b 483 450 428 608 481 550 z m 642 333 l 642 404 b 347 736 642 578 536 738 b 33 361 151 736 33 590 b 339 -14 33 132 151 -14 b 642 133 478 -14 575 31 l 517 211 b 356 125 474 161 436 125 b 206 333 275 125 208 183 z m 260 1017 l 103 814 l 258 814 l 347 928 l 435 814 l 592 814 l 432 1017 z "},"ë":{"ha":694,"x_min":0,"x_max":0,"o":"m 206 450 b 344 608 208 550 261 608 b 483 450 428 608 481 550 z m 642 333 l 642 404 b 347 736 642 578 536 738 b 33 361 151 736 33 590 b 339 -14 33 132 151 -14 b 642 133 478 -14 575 31 l 517 211 b 356 125 474 161 436 125 b 206 333 275 125 208 183 z m 132 989 l 132 828 l 299 828 l 299 989 z m 396 989 l 396 828 l 563 828 l 563 989 z "},"è":{"ha":694,"x_min":0,"x_max":0,"o":"m 206 450 b 344 608 208 550 261 608 b 483 450 428 608 481 550 z m 642 333 l 642 404 b 347 736 642 578 536 738 b 33 361 151 736 33 590 b 339 -14 33 132 151 -14 b 642 133 478 -14 575 31 l 517 211 b 356 125 474 161 436 125 b 206 333 275 125 208 183 z m 115 1017 l 318 814 l 460 814 l 329 1017 z "},"í":{"ha":386,"x_min":0,"x_max":0,"o":"m 279 722 l 107 722 l 107 0 l 279 0 z m 214 1017 l 83 814 l 225 814 l 428 1017 z "},"î":{"ha":386,"x_min":0,"x_max":0,"o":"m 279 722 l 107 722 l 107 0 l 279 0 z m 108 1017 l -49 814 l 107 814 l 196 928 l 283 814 l 440 814 l 281 1017 z "},"ï":{"ha":386,"x_min":0,"x_max":0,"o":"m 279 722 l 107 722 l 107 0 l 279 0 z m -19 989 l -19 828 l 147 828 l 147 989 z m 244 989 l 244 828 l 411 828 l 411 989 z "},"ì":{"ha":386,"x_min":0,"x_max":0,"o":"m 279 722 l 107 722 l 107 0 l 279 0 z m -36 1017 l 167 814 l 308 814 l 178 1017 z "},"ñ":{"ha":772,"x_min":0,"x_max":0,"o":"m 261 0 l 261 521 b 422 597 290 554 347 597 b 511 469 481 597 511 567 l 511 0 l 683 0 l 683 494 b 469 736 683 642 614 736 b 247 644 385 736 311 689 l 247 722 l 89 722 l 89 0 z m 543 1003 b 478 943 536 971 511 943 b 283 994 433 943 358 994 b 125 825 188 994 138 911 l 211 825 b 275 882 222 857 238 882 b 479 833 331 882 410 833 b 633 1003 578 833 615 917 z "},"ó":{"ha":694,"x_min":0,"x_max":0,"o":"m 489 361 b 347 125 489 200 443 125 b 206 361 251 125 206 200 b 347 597 206 522 251 597 b 489 361 443 597 489 522 z m 33 361 b 347 -14 33 132 151 -14 b 661 361 543 -14 661 132 b 347 736 661 590 543 736 b 33 361 151 736 33 590 z m 361 1017 l 231 814 l 372 814 l 575 1017 z "},"ô":{"ha":694,"x_min":0,"x_max":0,"o":"m 489 361 b 347 125 489 200 443 125 b 206 361 251 125 206 200 b 347 597 206 522 251 597 b 489 361 443 597 489 522 z m 33 361 b 347 -14 33 132 151 -14 b 661 361 543 -14 661 132 b 347 736 661 590 543 736 b 33 361 151 736 33 590 z m 256 1017 l 99 814 l 254 814 l 343 928 l 431 814 l 588 814 l 428 1017 z "},"ö":{"ha":694,"x_min":0,"x_max":0,"o":"m 489 361 b 347 125 489 200 443 125 b 206 361 251 125 206 200 b 347 597 206 522 251 597 b 489 361 443 597 489 522 z m 33 361 b 347 -14 33 132 151 -14 b 661 361 543 -14 661 132 b 347 736 661 590 543 736 b 33 361 151 736 33 590 z m 128 989 l 128 828 l 294 828 l 294 989 z m 392 989 l 392 828 l 558 828 l 558 989 z "},"ò":{"ha":694,"x_min":0,"x_max":0,"o":"m 489 361 b 347 125 489 200 443 125 b 206 361 251 125 206 200 b 347 597 206 522 251 597 b 489 361 443 597 489 522 z m 33 361 b 347 -14 33 132 151 -14 b 661 361 543 -14 661 132 b 347 736 661 590 543 736 b 33 361 151 736 33 590 z m 111 1017 l 314 814 l 456 814 l 325 1017 z "},"õ":{"ha":694,"x_min":0,"x_max":0,"o":"m 489 361 b 347 125 489 200 443 125 b 206 361 251 125 206 200 b 347 597 206 522 251 597 b 489 361 443 597 489 522 z m 33 361 b 347 -14 33 132 151 -14 b 661 361 543 -14 661 132 b 347 736 661 590 543 736 b 33 361 151 736 33 590 z m 507 1003 b 442 943 500 971 475 943 b 247 994 397 943 322 994 b 89 825 151 994 101 911 l 175 825 b 239 882 186 857 201 882 b 443 833 294 882 374 833 b 597 1003 542 833 579 917 z "},"š":{"ha":617,"x_min":0,"x_max":0,"o":"m 549 626 b 294 736 486 700 390 736 b 56 526 169 736 56 661 b 417 196 56 275 417 319 b 314 114 417 147 375 114 b 146 218 240 114 186 163 l 31 132 b 304 -14 94 38 189 -14 b 569 203 456 -14 569 53 b 208 538 569 467 208 414 b 306 608 208 581 239 608 b 440 532 360 608 406 569 z m 393 814 l 553 1017 l 396 1017 l 308 903 l 219 1017 l 64 1017 l 221 814 z "},"ú":{"ha":772,"x_min":0,"x_max":0,"o":"m 511 722 l 511 201 b 350 125 482 168 425 125 b 261 253 292 125 261 156 l 261 722 l 89 722 l 89 228 b 303 -14 89 81 158 -14 b 525 78 388 -14 461 33 l 525 0 l 683 0 l 683 722 z m 404 1017 l 274 814 l 415 814 l 618 1017 z "},"û":{"ha":772,"x_min":0,"x_max":0,"o":"m 511 722 l 511 201 b 350 125 482 168 425 125 b 261 253 292 125 261 156 l 261 722 l 89 722 l 89 228 b 303 -14 89 81 158 -14 b 525 78 388 -14 461 33 l 525 0 l 683 0 l 683 722 z m 299 1017 l 142 814 l 297 814 l 386 928 l 474 814 l 631 814 l 471 1017 z "},"ü":{"ha":772,"x_min":0,"x_max":0,"o":"m 511 722 l 511 201 b 350 125 482 168 425 125 b 261 253 292 125 261 156 l 261 722 l 89 722 l 89 228 b 303 -14 89 81 158 -14 b 525 78 388 -14 461 33 l 525 0 l 683 0 l 683 722 z m 171 989 l 171 828 l 338 828 l 338 989 z m 435 989 l 435 828 l 601 828 l 601 989 z "},"ù":{"ha":772,"x_min":0,"x_max":0,"o":"m 511 722 l 511 201 b 350 125 482 168 425 125 b 261 253 292 125 261 156 l 261 722 l 89 722 l 89 228 b 303 -14 89 81 158 -14 b 525 78 388 -14 461 33 l 525 0 l 683 0 l 683 722 z m 154 1017 l 357 814 l 499 814 l 368 1017 z "},"ý":{"ha":617,"x_min":0,"x_max":0,"o":"m 14 -258 b 97 -264 35 -261 56 -264 b 376 -1 239 -264 300 -208 l 604 722 l 432 722 l 308 278 l 306 278 l 186 722 l 13 722 l 206 106 b 228 19 214 76 228 46 b 200 -65 228 -10 217 -31 b 86 -122 179 -106 146 -122 b 14 -117 61 -122 40 -122 z m 326 1017 l 196 814 l 338 814 l 540 1017 z "},"ÿ":{"ha":617,"x_min":0,"x_max":0,"o":"m 14 -258 b 97 -264 35 -261 56 -264 b 376 -1 239 -264 300 -208 l 604 722 l 432 722 l 308 278 l 306 278 l 186 722 l 13 722 l 206 106 b 228 19 214 76 228 46 b 200 -65 228 -10 217 -31 b 86 -122 179 -106 146 -122 b 14 -117 61 -122 40 -122 z m 93 989 l 93 828 l 260 828 l 260 989 z m 357 989 l 357 828 l 524 828 l 524 989 z "},"ž":{"ha":617,"x_min":0,"x_max":0,"o":"m 54 583 l 374 583 l 25 122 l 25 0 l 592 0 l 592 139 l 242 139 l 589 600 l 589 722 l 54 722 z m 393 814 l 553 1017 l 396 1017 l 308 903 l 219 1017 l 64 1017 l 221 814 z "},"∆":{"ha":989,"x_min":0,"x_max":0,"o":"m 42 0 l 946 0 l 946 96 l 593 1017 l 403 1017 l 42 94 z m 207 126 l 406 621 b 488 856 431 696 475 806 l 493 856 b 583 599 511 793 560 672 l 772 126 z "},"Ω":{"ha":1090,"x_min":0,"x_max":0,"o":"m 281 126 l 64 126 l 64 0 l 454 0 l 454 94 b 247 514 347 154 247 306 b 547 881 247 721 367 881 b 840 519 738 881 840 699 b 633 94 840 293 739 158 l 633 0 l 1022 0 l 1022 126 l 804 126 l 804 131 b 1001 550 904 210 1001 356 b 549 1008 1001 778 833 1008 b 85 543 278 1008 85 804 b 281 131 85 353 182 211 z "},"μ":{"ha":772,"x_min":0,"x_max":0,"o":"m 511 722 l 511 201 b 350 125 482 168 425 125 b 261 253 292 125 261 156 l 261 722 l 89 722 l 89 -264 l 261 -264 l 261 -11 b 303 -14 274 -12 288 -14 b 525 78 388 -14 461 33 l 525 0 l 683 0 l 683 722 z "},"π":{"ha":890,"x_min":0,"x_max":0,"o":"m 853 611 l 867 743 l 243 743 b 8 699 118 743 46 725 l 28 594 b 186 611 61 606 106 611 b 86 0 182 440 139 157 l 243 0 b 344 611 296 136 338 443 l 579 611 l 579 207 b 606 0 579 97 589 26 l 761 0 b 740 218 750 43 740 104 l 740 611 z "},"€":{"ha":849,"x_min":0,"x_max":0,"o":"m 81 442 l 44 311 l 168 311 b 558 -14 211 122 328 -14 b 763 33 628 -14 704 3 l 763 207 b 561 142 703 156 624 142 b 346 311 432 142 372 211 l 642 311 l 676 442 l 328 442 l 328 536 l 703 536 l 739 667 l 344 667 b 546 861 376 796 449 861 b 763 756 639 861 696 826 l 810 926 b 553 1017 754 978 671 1017 b 163 667 343 1017 206 892 l 79 667 l 44 536 l 149 536 l 149 501 b 150 442 149 481 149 461 z "},"ℓ":{"ha":763,"x_min":0,"x_max":0,"o":"m 661 256 b 461 118 621 189 549 118 b 314 294 383 118 317 175 l 314 343 b 619 850 500 514 619 675 b 415 1097 619 985 556 1097 b 161 736 281 1097 161 997 l 161 371 b 39 274 124 338 82 308 l 82 188 b 163 250 110 208 138 231 b 164 233 163 244 163 239 b 425 -8 178 103 254 -8 b 729 189 543 -8 654 49 z m 314 750 b 421 985 314 931 371 985 b 513 851 488 985 513 932 b 314 486 513 736 428 608 z "},"℮":{"ha":1243,"x_min":0,"x_max":0,"o":"m 1193 488 l 1193 500 b 619 1017 1193 786 938 1017 b 49 500 304 1017 49 786 b 619 -12 49 217 304 -12 b 1072 186 804 -12 971 67 l 990 186 b 621 15 900 83 769 15 b 271 168 485 15 361 75 b 258 200 263 178 258 188 l 258 481 b 267 488 258 486 261 488 z m 982 524 b 976 514 982 521 981 514 l 267 514 b 258 524 261 514 258 521 l 258 800 b 272 835 258 814 263 825 b 621 986 363 926 486 986 b 969 839 757 986 879 928 b 982 806 978 831 982 818 z "},"∂":{"ha":849,"x_min":0,"x_max":0,"o":"m 153 925 b 354 993 192 954 258 993 b 621 618 508 993 621 829 b 619 564 621 604 621 578 l 618 564 b 381 694 594 603 514 694 b 57 328 203 694 57 550 b 363 -8 57 176 154 -8 b 776 578 628 -8 776 243 b 372 1121 776 935 588 1121 b 104 1038 238 1121 151 1072 z m 378 121 b 215 325 281 121 215 211 b 411 569 215 458 300 569 b 603 431 517 569 586 483 b 379 121 585 279 506 121 z "},"∏":{"ha":1074,"x_min":0,"x_max":0,"o":"m 1036 853 l 1036 992 l 36 992 l 36 853 l 196 853 l 196 -137 l 353 -137 l 353 853 l 719 853 l 719 -137 l 875 -137 l 875 853 z "},"∑":{"ha":840,"x_min":0,"x_max":0,"o":"m 810 -137 l 810 6 l 236 6 l 236 11 l 594 449 l 267 854 l 267 858 l 786 858 l 786 992 l 49 992 l 49 885 l 414 426 l 33 -39 l 33 -137 z "},"∙":{"ha":424,"x_min":0,"x_max":0,"o":"m 317 361 b 208 467 317 419 267 467 b 106 361 151 467 106 418 b 208 256 106 303 150 256 b 317 361 268 256 317 301 z "},"√":{"ha":876,"x_min":0,"x_max":0,"o":"m 888 1185 l 775 1185 l 508 82 b 486 -35 499 39 490 -6 l 483 -35 b 456 76 476 -3 465 38 l 282 569 l 47 475 l 76 388 l 186 431 l 419 -207 l 550 -207 z "},"∞":{"ha":1144,"x_min":0,"x_max":0,"o":"m 1072 411 b 850 647 1072 553 978 647 b 579 479 722 649 647 556 b 311 647 503 574 421 647 b 72 404 175 647 72 546 b 299 164 72 264 179 164 b 574 335 418 164 497 243 b 840 164 674 211 753 164 b 1072 410 960 164 1072 257 z m 311 253 b 164 403 225 253 164 321 b 304 561 164 490 218 561 b 525 400 404 561 463 481 b 313 253 467 336 400 253 z m 840 561 b 981 404 922 561 981 499 b 844 253 981 333 931 253 b 625 408 769 253 718 299 b 839 561 674 461 746 561 z "},"∫":{"ha":560,"x_min":0,"x_max":0,"o":"m 533 1203 b 446 1222 517 1211 482 1222 b 288 1161 389 1222 328 1203 b 201 847 226 1099 201 1008 b 224 138 201 611 224 386 b 178 -92 224 3 206 -57 b 110 -122 161 -112 135 -122 b 43 -106 82 -122 57 -112 l 21 -215 b 131 -239 42 -226 88 -239 b 304 -147 197 -239 267 -212 b 361 138 336 -93 361 -3 b 340 832 361 383 340 604 b 385 1076 340 956 350 1035 b 460 1111 403 1101 433 1111 b 515 1097 481 1111 501 1106 z "},"≈":{"ha":833,"x_min":0,"x_max":0,"o":"m 711 638 b 572 532 669 571 631 532 b 436 583 522 532 490 553 b 275 640 396 606 346 640 b 61 496 185 640 106 579 l 119 442 b 265 549 158 496 197 549 b 399 499 315 549 356 525 b 571 439 468 460 508 439 b 769 583 657 439 724 500 z m 711 372 b 571 267 668 306 632 267 b 436 319 518 267 483 293 b 274 375 396 342 347 375 b 61 231 186 375 106 315 l 119 176 b 265 283 158 232 197 283 b 399 235 314 283 354 261 b 569 175 467 196 508 175 b 769 318 658 175 724 236 z "},"≠":{"ha":833,"x_min":0,"x_max":0,"o":"m 604 735 l 529 767 l 453 599 l 74 599 l 74 506 l 415 506 l 324 301 l 74 301 l 74 208 l 285 208 l 221 68 l 296 36 l 374 208 l 760 208 l 760 301 l 411 301 l 504 506 l 760 506 l 760 599 l 542 599 z "},"≤":{"ha":833,"x_min":0,"x_max":0,"o":"m 756 139 l 756 247 l 178 514 l 178 517 l 756 782 l 756 890 l 81 565 l 81 465 z m 760 -12 l 760 82 l 74 82 l 74 -12 z "},"≥":{"ha":833,"x_min":0,"x_max":0,"o":"m 82 890 l 82 782 l 660 517 l 660 514 l 83 247 l 83 139 l 757 465 l 757 564 z m 758 -12 l 758 82 l 75 82 l 75 -12 z "},"◊":{"ha":876,"x_min":0,"x_max":0,"o":"m 800 496 l 503 1063 l 378 1063 l 76 496 l 372 -71 l 499 -71 z m 658 492 l 467 125 b 440 53 458 108 446 71 l 435 53 b 410 126 431 71 421 100 l 217 499 l 407 860 b 436 936 418 886 429 914 l 440 936 b 468 860 444 915 457 883 z "}," ":{"ha":424,"x_min":0,"x_max":0,"o":""},"­":{"ha":463,"x_min":0,"x_max":0,"o":"m 401 286 l 401 436 l 61 436 l 61 286 z "},"ˉ":{"ha":386,"x_min":0,"x_max":0,"o":"m 433 858 l 433 961 l -47 961 l -47 858 z "},"Ω":{"ha":1090,"x_min":0,"x_max":0,"o":"m 281 126 l 64 126 l 64 0 l 454 0 l 454 94 b 247 514 347 154 247 306 b 547 881 247 721 367 881 b 840 519 738 881 840 699 b 633 94 840 293 739 158 l 633 0 l 1022 0 l 1022 126 l 804 126 l 804 131 b 1001 550 904 210 1001 356 b 549 1008 1001 778 833 1008 b 85 543 278 1008 85 804 b 281 131 85 353 182 211 z "},"∕":{"ha":232,"x_min":0,"x_max":0,"o":"m -232 -14 l -108 -14 l 464 1017 l 342 1017 z "}}}
